<svg width="428" height="926" viewBox="0 0 428 926" fill="none" xmlns="http://www.w3.org/2000/svg">
<g clip-path="url(#clip0_3201_9539)">
<path d="M-29.8159 -112.681C-26.9571 -123.351 -15.9903 -129.682 -5.32101 -126.824L149.227 -85.4126C159.896 -82.5537 166.228 -71.587 163.369 -60.9177L96.0763 190.223C93.2175 200.892 82.2507 207.224 71.5814 204.365L-82.9667 162.954C-93.636 160.095 -99.9677 149.129 -97.1089 138.459L-29.8159 -112.681Z" fill="#C4C4C4"/>
<rect x="-108.497" y="180.96" width="200" height="300" rx="20" transform="rotate(15 -108.497 180.96)" fill="#C4C4C4"/>
<rect x="-192.354" y="493.92" width="200" height="300" rx="20" transform="rotate(15 -192.354 493.92)" fill="#C4C4C4"/>
<rect x="191.728" y="-74.0244" width="200" height="300" rx="20" transform="rotate(15 191.728 -74.0244)" fill="#C4C4C4"/>
<path d="M102.694 258.254C105.553 247.585 116.52 241.253 127.189 244.112L281.737 285.523C292.406 288.382 298.738 299.349 295.879 310.018L228.586 561.159C225.727 571.828 214.761 578.16 204.091 575.301L49.5433 533.89C38.874 531.031 32.5423 520.064 35.4012 509.395L102.694 258.254Z" fill="#C4C4C4"/>
<rect x="24.0131" y="551.896" width="200" height="300" rx="20" transform="rotate(15 24.0131 551.896)" fill="#C4C4C4"/>
<rect x="408.095" y="-16.0491" width="200" height="300" rx="20" transform="rotate(15 408.095 -16.0491)" fill="#C4C4C4"/>
<rect x="324.238" y="296.911" width="200" height="300" rx="20" transform="rotate(15 324.238 296.911)" fill="#C4C4C4"/>
<rect x="240.38" y="609.871" width="200" height="300" rx="20" transform="rotate(15 240.38 609.871)" fill="#C4C4C4"/>
<rect x="456.748" y="667.846" width="200" height="300" rx="20" transform="rotate(15 456.748 667.846)" fill="#C4C4C4"/>
</g>
<defs>
<clipPath id="clip0_3201_9539">
<rect width="872" height="948" fill="white" transform="translate(-24.6395 -132) rotate(15)"/>
</clipPath>
</defs>
</svg>
