<svg width="24" height="24" viewBox="0 0 24 24" fill="none" xmlns="http://www.w3.org/2000/svg">
<path d="M21.2449 10.2611L13.087 10.2607C12.7268 10.2607 12.4348 10.5527 12.4348 10.9129V13.519C12.4348 13.8791 12.7268 14.1712 13.087 14.1712H17.681C17.1779 15.4767 16.239 16.57 15.0411 17.2647L17 20.6557C20.1423 18.8384 22 15.6497 22 12.0803C22 11.572 21.9625 11.2087 21.8876 10.7996C21.8307 10.4888 21.5608 10.2611 21.2449 10.2611Z" fill="#167EE6"/>
<path d="M11.9998 18.0871C9.75161 18.0871 7.78896 16.8587 6.73485 15.041L3.34399 16.9955C5.06958 19.9862 8.30216 22.0001 11.9998 22.0001C13.8138 22.0001 15.5254 21.5117 16.9998 20.6606V20.6559L15.0409 17.2649C14.1449 17.7846 13.1081 18.0871 11.9998 18.0871Z" fill="#12B347"/>
<path d="M17 20.6603V20.6557L15.0411 17.2646C14.1451 17.7843 13.1083 18.0868 12 18.0868V21.9998C13.8139 21.9998 15.5256 21.5114 17 20.6603Z" fill="#0F993E"/>
<path d="M5.91305 11.9997C5.91305 10.8916 6.21547 9.85482 6.73504 8.95885L3.34418 7.00439C2.48836 8.4742 2 10.1812 2 11.9997C2 13.8183 2.48836 15.5253 3.34418 16.9951L6.73504 15.0406C6.21547 14.1447 5.91305 13.1079 5.91305 11.9997Z" fill="#FFD500"/>
<path d="M11.9998 5.91305C13.4659 5.91305 14.8125 6.43398 15.8643 7.30051C16.1238 7.51426 16.501 7.49883 16.7387 7.26113L18.5852 5.41465C18.8549 5.14496 18.8356 4.70352 18.5475 4.45359C16.7852 2.92473 14.4923 2 11.9998 2C8.30216 2 5.06958 4.01395 3.34399 7.00465L6.73485 8.9591C7.78896 7.14141 9.75161 5.91305 11.9998 5.91305Z" fill="#FF4B26"/>
<path d="M15.8645 7.30051C16.124 7.51426 16.5012 7.49883 16.7389 7.26113L18.5854 5.41465C18.855 5.14496 18.8358 4.70352 18.5477 4.45359C16.7854 2.92469 14.4925 2 12 2V5.91305C13.466 5.91305 14.8127 6.43398 15.8645 7.30051Z" fill="#D93F21"/>
</svg>
