<svg width="89" height="91" viewBox="0 0 89 91" fill="none" xmlns="http://www.w3.org/2000/svg">
<g clip-path="url(#clip0_822_557)">
<path d="M78.6085 12.0081C70.7847 4.29575 60.2528 0 49.1792 0V4.45559C59.0892 4.45559 68.4075 8.26183 75.4188 15.175L78.6085 12.0081Z" fill="#EE0000"/>
<path d="M73.5933 71.3494L76.803 74.5163C85.2887 66.1545 89.672 54.7059 88.9097 42.9175C88.2979 33.287 84.2556 23.8364 76.803 16.4937L73.5933 19.6405C79.7219 25.1651 83.6036 34.5858 84.3359 42.7277C85.3088 53.2673 81.1863 63.8868 73.5933 71.3494Z" fill="#EE0000"/>
<path d="M47.3537 8.93114V4.45557C36.7114 4.45557 26.049 8.48158 17.9143 16.4837L21.104 19.6306C28.1253 12.7374 37.4436 8.93114 47.3537 8.93114Z" fill="#EE0000"/>
<path d="M16.6706 17.3829L13.2 13.9463C-4.40335 31.2891 -4.40335 59.711 13.2 77.0539L16.6706 73.6173C0.912776 58.0926 0.912776 32.9075 16.6706 17.3829Z" fill="#EE0000"/>
<path d="M49.1792 86.5246V91.0002C59.8215 91.0002 70.4838 86.9742 78.6185 78.9721L75.4288 75.8252C68.4075 82.7184 59.0892 86.5246 49.1792 86.5246Z" fill="#EE0000"/>
<path d="M21.1141 71.3496L17.9244 74.5165C26.049 82.5286 36.7114 86.5246 47.3637 86.5246V82.069C37.4436 82.079 28.1253 78.2628 21.1141 71.3496Z" fill="#EE0000"/>
<path d="M68.3072 66.1346C79.8021 54.7858 79.8021 36.1942 68.3072 24.8654L73.6033 19.6306C66.602 12.7374 57.2838 8.93115 47.3536 8.93115V16.3338C39.1889 16.3338 31.7764 19.6006 26.4201 24.8654L21.104 19.6306C6.62008 33.9264 6.62008 57.0735 21.114 71.3494L26.4302 66.1346C31.7864 71.4094 39.1989 74.6661 47.3637 74.6661V82.0688C57.2938 82.0688 66.6121 78.2626 73.6033 71.3494L68.3072 66.1346Z" fill="#EE0000"/>
<path d="M75.4188 14.5857C68.4577 7.8823 59.32 4.14599 49.6005 4.0361V0.419678C60.313 0.519579 70.3735 4.62552 78.0167 12.0182L75.4188 14.5857Z" fill="#EE0000"/>
<path d="M84.7571 42.6779C84.9176 44.4062 84.9377 46.1445 84.8273 47.8728C86.021 48.4622 87.1945 49.1016 88.348 49.7709C88.5888 47.5131 88.6489 45.2254 88.4985 42.9377C87.8766 33.2073 83.724 24.0364 76.803 17.0732L74.2051 19.6207C79.8422 24.9055 83.9647 33.8966 84.7571 42.6779Z" fill="#EE0000"/>
<path d="M18.5162 16.4838C26.1794 9.09107 36.2399 4.97515 46.9324 4.87524V8.51165C37.2129 8.61155 28.0752 12.3479 21.1141 19.0412L18.5162 16.4838Z" fill="#EE0000"/>
<path d="M11.8961 68.6821C7.05139 61.9488 4.43345 53.9267 4.43345 45.495C4.43345 34.9055 8.56599 24.9354 16.0788 17.3828L13.2 14.5356C4.95503 22.8075 0.42128 33.7966 0.42128 45.505C0.42128 55.4452 3.6912 64.8559 9.72952 72.5383C10.3915 71.2196 11.1237 69.9409 11.8961 68.6821Z" fill="#EE0000"/>
<path d="M20.0207 58.4023C30.5226 47.9427 44.9363 41.9985 59.7914 41.9985C65.4887 41.9985 71.1157 42.8777 76.4921 44.546C76.2513 37.1933 73.2723 30.3401 68.0163 25.1652L67.7154 24.8655L73.0015 19.6307C66.2109 13.0871 57.2838 9.45073 47.7749 9.35083V16.7535H47.3537C39.55 16.7535 32.2278 19.7406 26.7211 25.1652L26.4302 25.4549L21.1241 20.2201C14.3736 27.0234 10.6724 35.9845 10.6724 45.5151C10.6724 51.9287 12.3675 58.0726 15.5271 63.4873C16.9113 61.6991 18.4058 60.0107 20.0207 58.4023Z" fill="#EE0000"/>
<path d="M43.4518 32.0383C48.2765 34.4859 57.6649 39.9005 62.2388 42.8376C66.1106 45.3252 66.0504 50.58 62.2388 53.1574C57.7652 56.1944 48.3467 61.5591 43.4518 63.9567C39.3193 65.9847 34.5047 63.3873 34.4746 58.7918C34.4445 53.3972 34.4746 42.5379 34.4746 37.1932C34.4746 32.6177 39.3393 29.9603 43.4518 32.0383Z" fill="#EE0000"/>
<path d="M43.4518 29.5408C48.2765 31.9883 57.6649 37.403 62.2388 40.3401C66.1106 42.8276 66.0504 48.0824 62.2388 50.6599C57.7652 53.6969 48.3467 59.0616 43.4518 61.4592C39.3193 63.4872 34.4746 60.8898 34.4746 56.2943C34.4746 50.8897 34.4746 39.7007 34.4746 34.6957C34.4746 30.1102 39.3393 27.4528 43.4518 29.5408Z" fill="white"/>
</g>
<defs>
<clipPath id="clip0_822_557">
<rect width="89" height="91" fill="white"/>
</clipPath>
</defs>
</svg>
